PathFileType	4	(X/Y/Z)	maxSprint.trc
DataRate	CameraRate	NumFrames	NumMarkers	Units	OrigDataRate	OrigDataStartFrame	OrigNumFrames
250.000000	250.000000	4	38	mm	250.000000	0	377
Frame#	Time	RASI			LASI			LAIC			RTH1			RTH2			RTH3			RTB1			RTB2			RTB3			RMT1			RMT5			LTH1			LTH2			LTH3			LTB1			LTB3			CLAV			STRN			RACR			LACR			LMT5			RPSI			LTB2			LMT1			RAIC			LCAL			T10			C7			LPSI			RCAL			*30			*31			*32			*33			RHJC			LHJC			MTOR			MPEL			
		X1	Y1	Z1	X2	Y2	Z2	X3	Y3	Z3	X4	Y4	Z4	X5	Y5	Z5	X6	Y6	Z6	X7	Y7	Z7	X8	Y8	Z8	X9	Y9	Z9	X10	Y10	Z10	X11	Y11	Z11	X12	Y12	Z12	X13	Y13	Z13	X14	Y14	Z14	X15	Y15	Z15	X16	Y16	Z16	X17	Y17	Z17	X18	Y18	Z18	X19	Y19	Z19	X20	Y20	Z20	X21	Y21	Z21	X22	Y22	Z22	X23	Y23	Z23	X24	Y24	Z24	X25	Y25	Z25	X26	Y26	Z26	X27	Y27	Z27	X28	Y28	Z28	X29	Y29	Z29	X30	Y30	Z30	X31	Y31	Z31	X32	Y32	Z32	X33	Y33	Z33	X34	Y34	Z34	X35	Y35	Z35	X36	Y36	Z36	X37	Y37	Z37	X38	Y38	Z38	

1	0	-4640.927246093752	1037.459838867188	279.8839721679689	-4653.592285156252	1066.028686523438	64.63397216796878	-4723.168457031252	1134.626708984375	31.09773254394533	-4791.238281250002	813.6924438476567	342.9927978515626	-4776.860351562502	715.922058105469	317.9021606445314	-4860.157226562502	652.6948242187502	312.7268676757814	-5035.411132812502	522.950622558594	202.818817138672	-5110.768066406252	512.5482177734377	246.6879882812501	-5174.466308593752	525.7290039062502	192.5658264160157	-5447.567871093752	451.7601013183596	136.9064178466797	-5482.035156250002	469.4183654785159	237.2807464599611	-4537.165527343752	840.5180664062505	-9.149342536926273	-4630.314453125002	878.1262817382817	-12.1036195755005	-4525.608398437502	740.727478027344	14.51893997192384	-4365.048339843752	540.2691040039065	123.3405990600587	-4346.199707031252	405.7528991699221	151.1826324462891	-4593.418945312502	1483.368896484375	142.6238555908204	-4569.010253906252	1290.856323242188	139.3873596191407	-4615.421875000002	1520.749145507813	364.4129028320314	-4746.608886718752	1543.694213867188	-7.231968879699711	-4192.739746093752	176.6359252929688	83.52158355712893	-4810.936035156252	1114.156860351563	236.2969970703126	-4330.953613281252	465.5086059570315	96.12414550781256	-4178.674804687502	210.6839904785157	184.2098083496094	-4698.770507812502	1131.448364257813	327.9811401367189	-4400.382324218752	174.770248413086	181.5138854980469	-4809.949218750002	1308.145874023438	202.1446533203126	-4720.020507812502	1558.928588867188	179.9779357910157	-4817.680175781252	1110.159790039063	140.1657714843751	-5348.869628906252	645.297790527344	164.4539642333985	-4905.798828125002	588.332214355469	292.091278076172	-5349.940917968752	583.108581542969	229.7213897705079	-4359.367187500002	220.1268920898439	112.6450958251954	-4443.299804687502	659.487243652344	36.157772064209	-4705.803108881949	995.9251886935156	240.8321321247192	-4714.162884796132	1014.782545812915	98.7526836012631	-4668.867553710939	1526.685211181641	169.945681333542	-4730.783935546877	1081.951293945313	180.2451782226564	
2	0.004	-4613.608886718752	1038.1591796875	279.6593017578126	-4628.474609375002	1066.9580078125	64.5288009643555	-4698.792968750002	1134.984741210938	31.67493057250978	-4762.231445312502	812.848999023438	343.5826416015626	-4746.506347656252	715.2869262695315	318.4128723144532	-4829.148925781252	651.0495605468752	313.3588256835939	-5004.633789062502	526.1572265625002	203.5354461669923	-5080.429687500002	519.583435058594	247.4731750488282	-5143.466796875002	535.258972167969	193.1984710693361	-5420.116210937502	472.4117431640627	139.2340545654297	-5451.591308593752	493.0427551269534	241.3264923095704	-4514.173339843752	831.6704711914067	-8.688960075378422	-4607.074218750002	873.115356445313	-13.07201862335206	-4506.520996093752	732.718444824219	14.04413223266602	-4344.618164062502	534.996276855469	124.921745300293	-4323.258789062502	400.6471862792971	151.7832794189454	-4568.120605468752	1483.345581054688	141.9776306152344	-4543.830566406252	1290.683959960938	138.859115600586	-4589.276855468752	1520.937255859375	363.7308654785157	-4721.818359375002	1542.980468750001	-7.850289821624759	-4168.670898437502	170.073471069336	83.41323852539065	-4784.407226562502	1113.616821289063	237.0932159423829	-4309.346679687502	460.8928222656252	97.11393737792974	-4152.895019531252	206.2789916992189	183.0268096923829	-4672.644042968752	1131.864990234375	328.5163574218751	-4374.618652343752	170.5415802001954	184.4346771240235	-4784.347167968752	1309.257446289063	202.2081451416017	-4694.583496093752	1559.252685546876	179.4022979736329	-4792.043457031252	1109.749389648438	141.0939636230469	-5312.625000000002	662.4249267578127	164.4302825927735	-4873.740234375002	586.7324829101565	292.6253356933595	-5315.335449218752	601.017028808594	230.3433532714845	-4335.087890625002	214.6379394531251	114.1446990966797	-4424.147949218752	651.217712402344	36.93873977661134	-4678.482987490485	996.1609065954283	241.125172317104	-4688.295362060454	1015.170065805042	99.12460470106373	-4643.449829101564	1526.628997802735	169.3151260614396	-4704.633544921877	1082.120849609375	180.5938205718995	
3	0.008	-4586.354492187502	1038.701782226563	279.3024291992189	-4603.201660156252	1067.561645507813	64.70608520507815	-4674.390136718752	1135.213500976563	32.01404190063478	-4733.051269531252	811.9633789062505	343.8609008789064	-4716.198242187502	714.5593261718752	318.987030029297	-4798.017089843752	649.2454223632815	314.0787658691407	-4973.366699218752	529.1945800781252	204.4233551025392	-5049.338378906252	526.2009277343752	248.3860015869142	-5111.713378906252	544.5565185546877	193.9770507812501	-5390.900878906252	492.7937316894534	142.8494567871094	-5419.564941406252	515.7488403320315	245.4515838623048	-4493.225097656252	825.0166625976567	-10.26611804962159	-4583.947265625002	867.846069335938	-13.64671230316163	-4487.709472656252	724.5930175781252	14.02147483825684	-4324.040039062502	529.8801269531252	125.7377700805665	-4300.671386718752	395.5843505859377	151.6680908203126	-4543.053710937502	1483.564453125	141.0719299316407	-4519.161621093752	1289.999755859375	138.7314910888672	-4563.371582031252	1520.858154296875	363.213592529297	-4697.011718750002	1541.906372070313	-8.525020599365238	-4146.753417968752	163.1133117675782	82.79022216796878	-4757.992675781252	1112.985595703125	237.9240264892579	-4288.359375000002	456.307067871094	97.46338653564459	-4128.971679687502	201.0915374755861	181.3907623291016	-4646.419921875002	1131.874267578125	329.1658935546876	-4350.850585937502	166.4748992919922	187.3153991699219	-4760.060546875002	1309.750610351563	203.8669891357423	-4669.255859375002	1559.312500000001	178.8955993652344	-4766.322753906252	1109.31201171875	141.8959045410157	-5275.568847656252	678.7841796875002	164.5627136230469	-4841.445312500002	584.864196777344	293.3164062500001	-5279.655273437502	618.1539306640627	230.9700164794923	-4312.712402343752	209.1469573974611	115.7369918823243	-4405.247070312502	643.3394775390627	37.92014694213869	-4651.203065449943	996.3933724883765	241.344991682203	-4662.323328852071	1015.442822344411	99.69697851020091	-4618.173217773439	1526.410369873047	168.6640253067017	-4678.467895507814	1082.140258789063	180.9571113586427	
4	0.012	-4559.187011718752	1039.116821289063	278.8302307128907	-4578.278320312502	1068.177612304688	64.30881500244143	-4649.826660156252	1135.363403320313	32.33895874023439	-4703.865234375002	810.9921264648442	344.0503845214845	-4685.654296875002	713.7862548828127	319.3787536621095	-4766.694824218752	647.3654785156252	314.7315368652345	-4941.940429687502	532.0061035156252	204.7679595947267	-5017.638671875002	532.6440429687502	249.3209228515626	-5079.189941406252	553.551696777344	194.8758087158204	-5360.182617187502	512.4368286132815	146.7003479003907	-5386.102539062502	537.3690185546877	249.513397216797	-4471.563476562502	816.8175659179692	-10.40171623229981	-4561.053710937502	862.4546508789067	-14.05468940734864	-4468.934082031252	716.6882324218752	15.08757781982423	-4303.416503906252	524.891540527344	126.1255493164063	-4278.559082031252	390.5537719726565	151.1455993652344	-4517.795410156252	1483	140.7569580078126	-4493.478515625002	1289.25537109375	137.9525604248047	-4537.572753906252	1520.539184570313	362.7766723632814	-4672.367675781252	1540.524780273438	-9.303136825561527	-4126.860351562502	156.1339263916016	81.60615539550784	-4731.575195312502	1112.1875	238.7321166992189	-4272.247070312502	450.5538635253909	91.87290191650393	-4106.931640625002	195.5984039306642	179.1977844238282	-4620.026855468752	1131.514404296875	329.8999328613282	-4328.768066406252	162.2095489501954	189.654037475586	-4734.521484375002	1310.2490234375	204.2574157714845	-4644.020996093752	1559.122070312501	178.3141479492188	-4740.648925781252	1108.725830078125	142.7552795410157	-5237.821289062502	694.4221801757815	164.9795379638672	-4808.783691406252	582.7683715820315	294.1062316894532	-5243.090332031252	634.5014648437502	231.9158325195314	-4292.174316406252	203.5734252929689	117.2274932861329	-4386.654785156252	636.0758056640627	39.0733985900879	-4624.059413163266	996.3623099123207	241.3923360450663	-4636.660959421829	1015.544384336162	99.79378976140856	-4592.939208984377	1525.796508789063	168.1361603736878	-4652.422363281252	1082.051940917969	181.1566104888917	
